{"title":"Alvin &amp; Chipmunks ChipWrecked 2011 1080p Brrip x264 Ratzz","uid":7104312,"size":1288313987,"categoryP":"video","categoryS":"hd___movies","magnet":"?xt=urn:btih:fdbff7943f8d346aac030996b16aaec76591f9de&amp;dn=Alvin+%26amp%3B+Chipmunks+ChipWrecked+2011+1080p+Brrip+x264+Ratzz&amp;tr=udp%3A%2F%2Ftracker.openbittorrent.com%3A80&amp;tr=udp%3A%2F%2Fopen.demonii.com%3A1337&amp;tr=udp%3A%2F%2Ftracker.coppersurfer.tk%3A6969&amp;tr=udp%3A%2F%2Fexodus.desync.com%3A6969","seeders":0,"leechers":1,"uploader":"afterratzz","files":7,"time":1331770027,"description":"Encoded by Ratzz.\n\n\n\n\n\n\n\n\nGeneral\nComplete name                    : Alvin &amp; Chipmunks ChipWrecked 2011 1080p Brrip x264 Ratzz.mp4\n\nFormat                           : MP4\nFormat profile                   : Base Media\nCodec ID                         : isom\nFile size                        : 1.20 GiB\nDuration                         : 1h 27mn\nOverall bit rate                 : 1 969 Kbps\n\n\nVideo\nID                               : 1\nFormat                           : AVC\nFormat/Info                      : Advanced Video Codec\nFormat profile                   : &lt;a class=&quot;__cf_email__&quot; href=&quot;/cdn-cgi/l/email-protection&quot; data-cfemail=&quot;b9f1d0ded1f9f58d9789&quot;&gt;[email&amp;#160;protected]&lt;/a&gt;&lt;script cf-hash='f9e31' type=&quot;text/javascript&quot;&gt;\n/* &lt;![CDATA[ */!function(){try{var t=&quot;currentScript&quot;in document?document.currentScript:function(){for(var t=document.getElementsByTagName(&quot;script&quot;),e=t.length;e--;)if(t[e].getAttribute(&quot;cf-hash&quot;))return t[e]}();if(t&amp;&amp;t.previousSibling){var e,r,n,i,c=t.previousSibling,a=c.getAttribute(&quot;data-cfemail&quot;);if(a){for(e=&quot;&quot;,r=parseInt(a.substr(0,2),16),n=2;a.length-n;n+=2)i=parseInt(a.substr(n,2),16)^r,e+=String.fromCharCode(i);e=document.createTextNode(e),c.parentNode.replaceChild(e,c)}}}catch(u){}}();/* ]]&gt; */&lt;/script&gt;\nFormat settings, CABAC           : Yes\nFormat settings, ReFrames        : 3 frames\nDuration                         : 1h 27mn\nBit rate mode                    : Variable\nBit rate                         : 1 905 Kbps\nMaximum bit rate                 : 25.0 Mbps\nWidth                            : 1 920 pixels\nHeight                           : 1 040 pixels\nDisplay aspect ratio             : 16:9\nFrame rate mode                  : Constant\nFrame rate                       : 23.976 fps\nColor space                      : YUV\nChroma subsampling               : 4:2:0\nBit depth                        : 8 bits\nScan type                        : Progressive\nBits/(Pixel*Frame)               : 0.040\nStream size                      : 1.16 GiB (97%)\n\nAudio\nID                               : 2\nFormat                           : AAC\nFormat/Info                      : Advanced Audio Codec\nFormat profile                   : HE-AAC / LC\nCodec ID                         : 40\nDuration                         : 1h 27mn\nBit rate mode                    : Variable\nBit rate                         : 64.0 Kbps\nMaximum bit rate                 : 71.4 Kbps\nChannel(s)                       : 2 channels\nChannel positions                : Front: L R\nSampling rate                    : 48.0 KHz / 24.0 KHz\nCompression mode                 : Lossy\nStream size                      : 39.9 MiB (3%)\nLanguage                         : English\n\n\n\n\n\nSubtitles                       : eng .srt file included.\n\n\n\n\n\n\n\nPoster :\n\n &lt;a href=&quot;\nhttp://img850.imageshack.us/img850/9649/alvinchipmunkschipwreck.jpg&quot; rel=&quot;nofollow&quot; target=&quot;_NEW&quot;&gt;\nhttp://img850.imageshack.us/img850/9649/alvinchipmunkschipwreck.jpg&lt;/a&gt;\n\n\n\nScreens :\n &lt;a href=&quot;\nhttp://img403.imageshack.us/img403/9649/alvinchipmunkschipwreck.jpg&quot; rel=&quot;nofollow&quot; target=&quot;_NEW&quot;&gt;\nhttp://img403.imageshack.us/img403/9649/alvinchipmunkschipwreck.jpg&lt;/a&gt;\n &lt;a href=&quot;\nhttp://img72.imageshack.us/img72/9649/alvinchipmunkschipwreck.jpg&quot; rel=&quot;nofollow&quot; target=&quot;_NEW&quot;&gt;\nhttp://img72.imageshack.us/img72/9649/alvinchipmunkschipwreck.jpg&lt;/a&gt;\n &lt;a href=&quot;\nhttp://img263.imageshack.us/img263/9649/alvinchipmunkschipwreck.jpg&quot; rel=&quot;nofollow&quot; target=&quot;_NEW&quot;&gt;\nhttp://img263.imageshack.us/img263/9649/alvinchipmunkschipwreck.jpg&lt;/a&gt;\n\n\n\n\n\n\npls seed back after download and provide feedback.\nthank you.","torrent":{"xt":"urn:btih:fdbff7943f8d346aac030996b16aaec76591f9de","amp;dn":"Alvin+%26amp%3B+Chipmunks+ChipWrecked+2011+1080p+Brrip+x264+Ratzz","amp;tr":["udp%3A%2F%2Ftracker.openbittorrent.com%3A80","udp%3A%2F%2Fopen.demonii.com%3A1337","udp%3A%2F%2Ftracker.coppersurfer.tk%3A6969","udp%3A%2F%2Fexodus.desync.com%3A6969"],"infoHash":"fdbff7943f8d346aac030996b16aaec76591f9de","infoHashBuffer":{"type":"Buffer","data":[253,191,247,148,63,141,52,106,172,3,9,150,177,106,174,199,101,145,249,222]},"announce":[],"urlList":[]}}